<svg width="24" height="25" viewBox="0 0 24 25" fill="none" xmlns="http://www.w3.org/2000/svg">
<path d="M18.7729 12.1157C19.1602 13.6668 19.0318 15.3017 18.4073 16.7713C17.7828 18.2409 16.6963 19.4648 15.3132 20.2568C13.9301 21.0487 12.3262 21.3652 10.7457 21.1582C9.16509 20.9512 7.69441 20.2319 6.55748 19.11C5.42056 17.988 4.67967 16.5247 4.44758 14.9429C4.2155 13.3611 4.50493 11.7473 5.27183 10.3473C6.03873 8.94735 7.24108 7.83776 8.69587 7.18749C10.1507 6.53721 11.7782 6.38187 13.3308 6.7451" stroke="black" style="stroke:black;stroke-opacity:1;" stroke-width="1.5" stroke-miterlimit="1.46683" stroke-linecap="round"/>
<path d="M7.37961 15.8539C7.29428 15.8539 7.21161 15.8219 7.13161 15.7579C7.05695 15.6939 7.01961 15.6112 7.01961 15.5099C7.01961 15.4672 7.02761 15.4219 7.04361 15.3739L8.05161 12.7419C8.08895 12.6459 8.15028 12.5739 8.23561 12.5259C8.32095 12.4779 8.40895 12.4539 8.49961 12.4539C8.59561 12.4539 8.68628 12.4779 8.77161 12.5259C8.86228 12.5739 8.92628 12.6459 8.96361 12.7419L10.0436 15.3579C10.0543 15.3792 10.0596 15.4005 10.0596 15.4219C10.0596 15.4432 10.0596 15.4645 10.0596 15.4859C10.0596 15.5979 10.0223 15.6859 9.94761 15.7499C9.87295 15.8139 9.79028 15.8459 9.69961 15.8459C9.63561 15.8459 9.57161 15.8272 9.50761 15.7899C9.44895 15.7579 9.40628 15.7045 9.37961 15.6299L9.14761 15.0059C9.14228 14.9739 9.12095 14.9579 9.08361 14.9579H8.00361C7.96628 14.9579 7.94228 14.9739 7.93161 15.0059L7.70761 15.6379C7.67028 15.7072 7.62228 15.7605 7.56361 15.7979C7.50495 15.8352 7.44361 15.8539 7.37961 15.8539ZM8.29161 14.3339H8.76361C8.79561 14.3339 8.81961 14.3232 8.83561 14.3019C8.85695 14.2752 8.86228 14.2432 8.85161 14.2059L8.64361 13.6379C8.61161 13.5525 8.57161 13.5099 8.52361 13.5099C8.47561 13.5099 8.43561 13.5552 8.40361 13.6459L8.20361 14.2139C8.19295 14.2459 8.19561 14.2752 8.21161 14.3019C8.22761 14.3232 8.25428 14.3339 8.29161 14.3339ZM11.9907 15.8539C11.6761 15.8539 11.3907 15.7792 11.1347 15.6299C10.8787 15.4805 10.6761 15.2779 10.5267 15.0219C10.3774 14.7659 10.3027 14.4752 10.3027 14.1499C10.3027 13.8245 10.3747 13.5365 10.5187 13.2859C10.6681 13.0299 10.8734 12.8272 11.1347 12.6779C11.3961 12.5285 11.6921 12.4539 12.0227 12.4539C12.2574 12.4539 12.4681 12.4832 12.6547 12.5419C12.8467 12.6005 13.0227 12.6939 13.1827 12.8219C13.2681 12.8912 13.3107 12.9819 13.3107 13.0939C13.3107 13.1845 13.2787 13.2619 13.2147 13.3259C13.1507 13.3899 13.0734 13.4219 12.9827 13.4219C12.9241 13.4219 12.8574 13.3979 12.7827 13.3499C12.6654 13.2752 12.5454 13.2165 12.4227 13.1739C12.3001 13.1259 12.1694 13.1019 12.0307 13.1019C11.7374 13.1019 11.4947 13.2005 11.3027 13.3979C11.1161 13.5899 11.0227 13.8405 11.0227 14.1499C11.0227 14.4699 11.1134 14.7259 11.2947 14.9179C11.4761 15.1099 11.7081 15.2059 11.9907 15.2059C12.2521 15.2059 12.4654 15.1552 12.6307 15.0539C12.8014 14.9472 12.8867 14.8112 12.8867 14.6459C12.8867 14.6032 12.8681 14.5819 12.8307 14.5819H12.2947C12.1934 14.5819 12.1107 14.5525 12.0467 14.4939C11.9881 14.4352 11.9587 14.3579 11.9587 14.2619C11.9587 14.1712 11.9881 14.0965 12.0467 14.0379C12.1107 13.9792 12.1934 13.9499 12.2947 13.9499H13.1747C13.3187 13.9499 13.4227 13.9845 13.4867 14.0539C13.5507 14.1179 13.5827 14.2272 13.5827 14.3819C13.5827 14.8299 13.4361 15.1872 13.1427 15.4539C12.8547 15.7205 12.4707 15.8539 11.9907 15.8539ZM14.6624 15.7739C14.5078 15.7739 14.3824 15.7259 14.2864 15.6299C14.1904 15.5339 14.1424 15.4085 14.1424 15.2539V13.0299C14.1424 12.8752 14.1878 12.7552 14.2784 12.6699C14.3691 12.5792 14.4891 12.5339 14.6384 12.5339H15.8464C16.0704 12.5339 16.1824 12.6405 16.1824 12.8539C16.1824 12.9445 16.1504 13.0219 16.0864 13.0859C16.0224 13.1445 15.9424 13.1739 15.8464 13.1739H15.0224C14.9158 13.1739 14.8624 13.2272 14.8624 13.3339V13.6539C14.8624 13.7605 14.9158 13.8139 15.0224 13.8139H15.7264C15.8331 13.8139 15.9158 13.8432 15.9744 13.9019C16.0331 13.9605 16.0624 14.0379 16.0624 14.1339C16.0624 14.2192 16.0278 14.2939 15.9584 14.3579C15.8944 14.4219 15.8171 14.4539 15.7264 14.4539H15.0224C14.9158 14.4539 14.8624 14.5072 14.8624 14.6139V14.9659C14.8624 15.0725 14.9158 15.1259 15.0224 15.1259H15.9264C16.0278 15.1259 16.1078 15.1552 16.1664 15.2139C16.2304 15.2725 16.2624 15.3525 16.2624 15.4539C16.2624 15.5445 16.2304 15.6219 16.1664 15.6859C16.1024 15.7445 16.0224 15.7739 15.9264 15.7739H14.6624Z" fill="black" style="fill:black;fill-opacity:1;"/>
<path d="M13.5459 7.33549L11.5322 4.06685" stroke="black" style="stroke:black;stroke-opacity:1;" stroke-width="1.5" stroke-linecap="round"/>
<path d="M13.5459 7.33549L10.2773 9.34922" stroke="black" style="stroke:black;stroke-opacity:1;" stroke-width="1.5" stroke-linecap="round"/>
</svg>
