<svg width="24" height="25" viewBox="0 0 24 25" fill="none" xmlns="http://www.w3.org/2000/svg">
<path d="M11.0511 11.4726C11.9588 10.9485 13.1195 11.2595 13.6436 12.1673C13.8496 12.5241 13.9266 12.9201 13.8889 13.3012C13.9202 13.5621 14.005 13.8153 14.1395 14.0445C14.2776 14.2798 14.4634 14.4817 14.6835 14.638C14.7942 14.6885 14.8993 14.7492 14.9974 14.8191C15.0066 14.8233 15.0159 14.8275 15.0252 14.8315L15.0226 14.8374C15.4915 15.1829 15.7957 15.739 15.7957 16.3661C15.7957 17.4143 14.946 18.264 13.8978 18.264C13.6267 18.264 13.3688 18.2071 13.1354 18.1046L13.1322 18.109L13.1116 18.094C12.997 18.0417 12.8885 17.9784 12.7874 17.9054C12.5405 17.7928 12.2708 17.7338 11.9963 17.7343C11.7243 17.7348 11.4572 17.7938 11.2126 17.9054C11.1115 17.9784 11.003 18.0417 10.8883 18.094C10.8795 18.1004 10.8707 18.1068 10.8619 18.1134L10.8576 18.1076C10.6261 18.2082 10.3706 18.264 10.1022 18.264C9.05402 18.264 8.20433 17.4143 8.20433 16.3661C8.20433 15.739 8.5085 15.1829 8.97737 14.8374L8.97481 14.8315C8.9841 14.8275 8.99335 14.8233 9.00257 14.8191C9.1007 14.7492 9.20576 14.6885 9.31652 14.638C9.53656 14.4817 9.72242 14.2798 9.86054 14.0445C9.99479 13.8158 10.0794 13.563 10.1109 13.3026C10.0973 13.1639 10.0991 13.0248 10.1158 12.8879C10.1857 12.3163 10.5139 11.7827 11.0511 11.4726Z" fill="black" style="fill:black;fill-opacity:1;"/>
<circle cx="7.85927" cy="12.5983" r="1.38024" fill="black" style="fill:black;fill-opacity:1;"/>
<circle cx="9.92964" cy="9.4067" r="1.38024" fill="black" style="fill:black;fill-opacity:1;"/>
<circle cx="14.0704" cy="9.4067" r="1.38024" fill="black" style="fill:black;fill-opacity:1;"/>
<circle cx="16.1407" cy="12.5983" r="1.38024" fill="black" style="fill:black;fill-opacity:1;"/>
<path d="M16.7401 4.24839H18.5181C19.6227 4.24839 20.5181 5.14382 20.5181 6.24839V8.02646" stroke="black" style="stroke:black;stroke-opacity:1;" stroke-width="1.5" stroke-linecap="round"/>
<path d="M7.25995 4.24839H5.48189C4.37732 4.24839 3.48189 5.14382 3.48189 6.24839V8.02646" stroke="black" style="stroke:black;stroke-opacity:1;" stroke-width="1.5" stroke-linecap="round"/>
<path d="M16.7401 21.2993H18.5181C19.6227 21.2993 20.5181 20.4039 20.5181 19.2993V17.5212" stroke="black" style="stroke:black;stroke-opacity:1;" stroke-width="1.5" stroke-linecap="round"/>
<path d="M7.25995 21.2993H5.48189C4.37732 21.2993 3.48189 20.4039 3.48189 19.2993V17.5212" stroke="black" style="stroke:black;stroke-opacity:1;" stroke-width="1.5" stroke-linecap="round"/>
</svg>
