<svg width="24" height="25" viewBox="0 0 24 25" fill="none" xmlns="http://www.w3.org/2000/svg">
<rect x="5" y="5.74197" width="14" height="16" rx="2" stroke="black" style="stroke:black;stroke-opacity:1;" stroke-width="1.5"/>
<path fill-rule="evenodd" clip-rule="evenodd" d="M10.0159 3.74197C10.2833 3.74197 10.5 3.52525 10.5 3.25791V3.25791C10.5 2.99057 10.7167 2.77385 10.9841 2.77385H13.0159C13.2833 2.77385 13.5 2.99057 13.5 3.25791V3.25791C13.5 3.52525 13.7167 3.74197 13.9841 3.74197H14.25C14.6642 3.74197 15 4.07776 15 4.49197V4.74197C15 5.29425 14.5523 5.74197 14 5.74197H10C9.44772 5.74197 9 5.29425 9 4.74197V4.49197C9 4.07776 9.33579 3.74197 9.75 3.74197H10.0159Z" fill="black" style="fill:black;fill-opacity:1;"/>
<path d="M11.3537 10.1967C11.9719 9.83983 12.7624 10.0516 13.1194 10.6698C13.2206 10.8452 13.2761 11.0344 13.2895 11.2237C13.2998 11.3687 13.2894 11.5166 13.3305 11.656C13.3604 11.7577 13.4028 11.8559 13.4571 11.9483C13.53 12.0726 13.6225 12.1832 13.7303 12.2763C13.7926 12.33 13.8663 12.368 13.9375 12.4091C13.9727 12.4295 14.0069 12.4514 14.0399 12.4748C14.0409 12.4755 14.0419 12.4761 14.043 12.4766C14.048 12.4789 14.0531 12.4811 14.0581 12.4834C14.0593 12.4839 14.0599 12.4853 14.0593 12.4865V12.4865C14.0589 12.4876 14.0592 12.4888 14.0601 12.4895C14.3786 12.7249 14.585 13.1031 14.585 13.5295C14.585 14.2433 14.0064 14.822 13.2925 14.822C13.1084 14.822 12.9333 14.7835 12.7748 14.7141C12.7739 14.7137 12.7729 14.714 12.7723 14.7148V14.7148C12.7716 14.7157 12.7703 14.7159 12.7694 14.7152L12.7584 14.7072C12.7575 14.7065 12.7566 14.706 12.7556 14.7055C12.7165 14.6877 12.6785 14.6679 12.6416 14.6464C12.5694 14.6042 12.4986 14.5584 12.4196 14.5313C12.2846 14.485 12.142 14.461 11.9975 14.4613C11.8554 14.4616 11.7152 14.4853 11.5824 14.5306C11.502 14.558 11.43 14.6047 11.3566 14.6474C11.3204 14.6685 11.2831 14.6878 11.2447 14.7054C11.2435 14.7059 11.2424 14.7066 11.2413 14.7074C11.2365 14.7108 11.2318 14.7143 11.2271 14.7178C11.2259 14.7187 11.2242 14.7185 11.2233 14.7173V14.7173C11.2225 14.7163 11.2211 14.7159 11.22 14.7164C11.0628 14.7843 10.8896 14.822 10.7075 14.822C9.99363 14.822 9.41495 14.2433 9.41495 13.5295C9.41495 13.1031 9.62144 12.7249 9.93988 12.4895C9.94078 12.4888 9.94111 12.4876 9.94066 12.4865V12.4865C9.94012 12.4853 9.94068 12.4839 9.9419 12.4834C9.94693 12.4811 9.95195 12.4789 9.95695 12.4766C9.95804 12.4761 9.95908 12.4755 9.96006 12.4748C9.99308 12.4514 10.0273 12.4295 10.0625 12.4091C10.1337 12.368 10.2074 12.33 10.2697 12.2763C10.3775 12.1832 10.47 12.0726 10.5429 11.9483C10.597 11.8562 10.6392 11.7584 10.6692 11.6571C10.7104 11.5176 10.7002 11.3696 10.7106 11.2246C10.7121 11.2032 10.7142 11.1819 10.7168 11.1607C10.7643 10.7713 10.9879 10.408 11.3537 10.1967Z" fill="black" style="fill:black;fill-opacity:1;"/>
<circle cx="9.17995" cy="10.9634" r="0.940016" fill="black" style="fill:black;fill-opacity:1;"/>
<circle cx="10.59" cy="8.78976" r="0.940016" fill="black" style="fill:black;fill-opacity:1;"/>
<circle cx="13.41" cy="8.78976" r="0.940016" fill="black" style="fill:black;fill-opacity:1;"/>
<circle cx="14.8201" cy="10.9634" r="0.940016" fill="black" style="fill:black;fill-opacity:1;"/>
<path d="M14 19.2294L10 19.2294" stroke="black" style="stroke:black;stroke-opacity:1;" stroke-width="1.5" stroke-linecap="round"/>
<path d="M16.0105 17.1611L8.01053 17.1611" stroke="black" style="stroke:black;stroke-opacity:1;" stroke-width="1.5" stroke-linecap="round"/>
</svg>
