<svg width="24" height="25" viewBox="0 0 24 25" fill="none" xmlns="http://www.w3.org/2000/svg">
<path d="M9.44906 12.6208C9.1247 11.6675 9.13489 10.6321 9.47794 9.68541C9.821 8.73868 10.4764 7.93712 11.3362 7.4129C12.1959 6.88868 13.2087 6.67309 14.2074 6.80169C15.2061 6.93029 16.1312 7.39539 16.8301 8.12031C17.529 8.84523 17.96 9.78668 18.052 10.7894C18.1441 11.7922 17.8916 12.7964 17.3364 13.6364C16.7811 14.4764 15.9561 15.1021 14.9975 15.4104C14.0389 15.7186 13.0038 15.691 12.063 15.332" stroke="black" style="stroke:black;stroke-opacity:1;" stroke-width="1.5" stroke-linecap="round"/>
<path d="M19.905 4.93097L16.7734 8.0626" stroke="black" style="stroke:black;stroke-opacity:1;" stroke-width="1.5" stroke-linecap="round"/>
<path d="M20.5536 4.2824L16.1248 4.2824" stroke="black" style="stroke:black;stroke-opacity:1;" stroke-width="1.5" stroke-linecap="round"/>
<path d="M20.5536 4.2824L20.5536 8.71118" stroke="black" style="stroke:black;stroke-opacity:1;" stroke-width="1.5" stroke-linecap="round"/>
<path d="M12.1974 11.257C12.4758 12.2164 12.4217 13.2418 12.0438 14.1666C11.666 15.0914 10.9865 15.8612 10.1158 16.3511C9.24517 16.841 8.23445 17.0221 7.24785 16.8651C6.26124 16.708 5.35673 16.222 4.68122 15.486C4.00571 14.75 3.59889 13.8072 3.52685 12.8107C3.45481 11.8143 3.72178 10.8228 4.28438 9.99727C4.84699 9.17173 5.67219 8.56065 6.62594 8.26331C7.57969 7.96596 8.60595 7.99982 9.53803 8.35937" stroke="black" style="stroke:black;stroke-opacity:1;" stroke-width="1.5" stroke-linecap="round"/>
<path d="M5.72971 19.1346H10.1585" stroke="black" style="stroke:black;stroke-opacity:1;" stroke-width="1.5" stroke-linecap="round"/>
<path d="M7.94408 21.3489L7.94408 16.9202" stroke="black" style="stroke:black;stroke-opacity:1;" stroke-width="1.5" stroke-linecap="round"/>
</svg>
