<svg width="24" height="25" viewBox="0 0 24 25" fill="none" xmlns="http://www.w3.org/2000/svg">
<path d="M4.58461 13.165L4.05428 13.6954L4.05428 13.6954L4.58461 13.165ZM4.58461 6.71859L4.05428 6.18826L4.05428 6.18826L4.58461 6.71859ZM5.55159 14.132L6.08192 13.6017L6.08191 13.6017L5.55159 14.132ZM11.2909 19.8713L10.7606 20.4016L10.7606 20.4016L11.2909 19.8713ZM11.4478 19.9995L11.861 19.3736L11.861 19.3736L11.4478 19.9995ZM12.6901 19.8861L13.2093 20.4273L13.2093 20.4273L12.6901 19.8861ZM12.7051 19.8713L13.2354 20.4016L13.2354 20.4016L12.7051 19.8713ZM18.4444 14.132L17.9141 13.6017L17.9141 13.6017L18.4444 14.132ZM19.4114 13.165L19.9417 13.6954L19.9417 13.6954L19.4114 13.165ZM19.4114 6.71859L19.9417 6.18826L19.9417 6.18826L19.4114 6.71859ZM12.965 6.71859L13.4953 7.24893L13.4953 7.24892L12.965 6.71859ZM11.998 7.68556L11.4677 8.21589L11.998 8.74622L12.5283 8.21589L11.998 7.68556ZM11.031 6.71859L11.5614 6.18826L11.5614 6.18826L11.031 6.71859ZM5.11494 12.6347C3.6277 11.1475 3.6277 8.73616 5.11494 7.24892L4.05428 6.18826C1.98125 8.26129 1.98125 11.6223 4.05428 13.6954L5.11494 12.6347ZM6.08191 13.6017L5.11494 12.6347L4.05428 13.6954L5.02126 14.6623L6.08191 13.6017ZM11.8212 19.341L6.08192 13.6017L5.02126 14.6623L10.7606 20.4016L11.8212 19.341ZM11.861 19.3736C11.8475 19.3646 11.8341 19.3539 11.8212 19.341L10.7606 20.4016C10.8453 20.4864 10.9372 20.5611 11.0345 20.6253L11.861 19.3736ZM12.1708 19.3449C12.0862 19.4261 11.9563 19.4365 11.861 19.3736L11.0345 20.6253C11.7042 21.0675 12.6099 21.0023 13.2093 20.4273L12.1708 19.3449ZM12.1748 19.341C12.1735 19.3423 12.1721 19.3436 12.1708 19.3449L13.2093 20.4273C13.2181 20.4188 13.2268 20.4103 13.2354 20.4016L12.1748 19.341ZM17.9141 13.6017L12.1748 19.341L13.2354 20.4016L18.9748 14.6623L17.9141 13.6017ZM18.9748 14.6623L19.9417 13.6954L18.8811 12.6347L17.9141 13.6017L18.9748 14.6623ZM19.9417 13.6954C22.0148 11.6223 22.0148 8.26129 19.9417 6.18826L18.8811 7.24892C20.3683 8.73616 20.3683 11.1475 18.8811 12.6347L19.9417 13.6954ZM19.9417 6.18826C17.8687 4.11524 14.5077 4.11524 12.4347 6.18826L13.4953 7.24892C14.9826 5.76168 17.3938 5.76168 18.8811 7.24892L19.9417 6.18826ZM12.4347 6.18826L11.4677 7.15523L12.5283 8.21589L13.4953 7.24893L12.4347 6.18826ZM10.5007 7.24892L11.4677 8.21589L12.5283 7.15523L11.5614 6.18826L10.5007 7.24892ZM5.11494 7.24892C6.60218 5.76168 9.01347 5.76168 10.5007 7.24893L11.5614 6.18826C9.48835 4.11524 6.12731 4.11524 4.05428 6.18826L5.11494 7.24892Z" fill="black" style="fill:black;fill-opacity:1;"/>
<rect x="8.99802" y="11.7739" width="6" height="2" rx="0.2" fill="black" style="fill:black;fill-opacity:1;"/>
<rect x="11" y="15.7739" width="6" height="2" rx="0.2" transform="rotate(-90 11 15.7739)" fill="black" style="fill:black;fill-opacity:1;"/>
</svg>
