<svg width="24" height="25" viewBox="0 0 24 25" fill="none" xmlns="http://www.w3.org/2000/svg">
<circle cx="13.4381" cy="15.6021" r="4.24688" stroke="black" style="stroke:black;stroke-opacity:1;" stroke-width="1.5"/>
<path d="M18.1719 21.4146C18.4648 21.7075 18.9396 21.7075 19.2325 21.4146C19.5254 21.1217 19.5254 20.6469 19.2325 20.354L18.1719 21.4146ZM15.9137 19.1565L18.1719 21.4146L19.2325 20.354L16.9744 18.0958L15.9137 19.1565Z" fill="black" style="fill:black;fill-opacity:1;"/>
<path d="M19.1819 11.4026V10.0691C19.1819 9.73776 19.0178 9.42791 18.7436 9.24178L12.5617 5.04477C12.2226 4.81456 11.7774 4.81456 11.4383 5.04477L5.25642 9.24178C4.98226 9.42791 4.81812 9.73776 4.81812 10.0691V18.697C4.81812 19.2492 5.26583 19.697 5.81812 19.697H7.29243" stroke="black" style="stroke:black;stroke-opacity:1;" stroke-width="1.5" stroke-linecap="round"/>
</svg>
