<svg width="24" height="25" viewBox="0 0 24 25" fill="none" xmlns="http://www.w3.org/2000/svg">
<path d="M19.0149 14.4761L18.3262 14.1792L18.3137 14.2083L18.3036 14.2383L19.0149 14.4761ZM4.98508 14.4762L5.69639 14.2384L5.68635 14.2083L5.6738 14.1792L4.98508 14.4762ZM11.7589 21.6602L11.372 22.3027L11.7589 21.6602ZM12.2411 21.6602L11.8543 21.0177L12.2411 21.6602ZM18.8856 11.4558C18.8856 12.4246 18.6859 13.3449 18.3262 14.1792L19.7037 14.773C20.1427 13.7547 20.3856 12.6326 20.3856 11.4558H18.8856ZM12 4.5702C15.8028 4.5702 18.8856 7.65298 18.8856 11.4558H20.3856C20.3856 6.82455 16.6312 3.0702 12 3.0702V4.5702ZM5.11443 11.4558C5.11443 7.65298 8.1972 4.5702 12 4.5702V3.0702C7.36878 3.0702 3.61443 6.82455 3.61443 11.4558H5.11443ZM5.6738 14.1792C5.31409 13.3449 5.11443 12.4246 5.11443 11.4558H3.61443C3.61443 12.6326 3.8573 13.7547 4.29637 14.7731L5.6738 14.1792ZM12.1457 21.0177C11.6228 20.7028 10.2787 19.8495 8.92253 18.6362C7.55303 17.4109 6.24674 15.8848 5.69639 14.2384L4.27377 14.7139C4.94718 16.7284 6.48321 18.4665 7.92238 19.754C9.37492 21.0536 10.8058 21.9618 11.372 22.3027L12.1457 21.0177ZM18.3036 14.2383C17.7533 15.8847 16.447 17.4109 15.0775 18.6361C13.7214 19.8494 12.3772 20.7028 11.8543 21.0177L12.628 22.3027C13.1942 21.9618 14.6251 21.0536 16.0777 19.754C17.5168 18.4664 19.0529 16.7284 19.7263 14.7139L18.3036 14.2383ZM11.372 22.3027C11.7591 22.5358 12.241 22.5358 12.628 22.3027L11.8543 21.0177C11.9432 20.9641 12.0568 20.9641 12.1457 21.0177L11.372 22.3027Z" fill="black" style="fill:black;fill-opacity:1;"/>
<circle cx="12" cy="11.2447" r="3.31387" stroke="black" style="stroke:black;stroke-opacity:1;" stroke-width="1.5"/>
</svg>
