<svg width="24" height="25" viewBox="0 0 24 25" fill="none" xmlns="http://www.w3.org/2000/svg">
<circle cx="11.0366" cy="11.7933" r="8.04457" stroke="black" style="stroke:black;stroke-opacity:1;" stroke-width="1.5"/>
<path d="M20.4777 22.3293C20.7706 22.6222 21.2454 22.6222 21.5383 22.3293C21.8312 22.0365 21.8312 21.5616 21.5383 21.2687L20.4777 22.3293ZM16.2002 18.0519L20.4777 22.3293L21.5383 21.2687L17.2609 16.9913L16.2002 18.0519Z" fill="black" style="fill:black;fill-opacity:1;"/>
<path d="M10.3903 10.6541C11.0085 10.2972 11.799 10.509 12.1559 11.1272C12.2963 11.3703 12.3487 11.64 12.323 11.8995C12.3444 12.0772 12.402 12.2497 12.4937 12.4057C12.5877 12.566 12.7143 12.7035 12.8642 12.8099C12.9396 12.8443 13.0111 12.8857 13.078 12.9333C13.0842 12.9361 13.0905 12.939 13.0969 12.9417L13.0951 12.9457C13.4145 13.181 13.6216 13.5598 13.6216 13.9869C13.6216 14.7007 13.0429 15.2794 12.3291 15.2794C12.1444 15.2794 11.9688 15.2407 11.8099 15.1709L11.8076 15.1739L11.7937 15.1636C11.7156 15.128 11.6417 15.0849 11.5729 15.0352C11.4047 14.9585 11.221 14.9183 11.0341 14.9187C10.8488 14.919 10.6669 14.9592 10.5003 15.0352C10.4315 15.0849 10.3575 15.128 10.2795 15.1636C10.2734 15.168 10.2674 15.1724 10.2615 15.1769L10.2585 15.1729C10.1009 15.2414 9.9269 15.2794 9.74405 15.2794C9.03021 15.2794 8.45152 14.7007 8.45152 13.9869C8.45152 13.5598 8.65868 13.181 8.978 12.9457L8.97626 12.9417C8.98259 12.939 8.98889 12.9361 8.99517 12.9333C9.062 12.8857 9.13355 12.8443 9.20898 12.8099C9.35884 12.7035 9.48542 12.566 9.57949 12.4057C9.67092 12.2499 9.72857 12.0778 9.74998 11.9005C9.74071 11.806 9.74199 11.7113 9.75335 11.618C9.80091 11.2287 10.0245 10.8654 10.3903 10.6541Z" fill="black" style="fill:black;fill-opacity:1;"/>
<circle cx="8.21652" cy="11.4208" r="0.940016" fill="black" style="fill:black;fill-opacity:1;"/>
<circle cx="9.62656" cy="9.24715" r="0.940016" fill="black" style="fill:black;fill-opacity:1;"/>
<circle cx="12.4466" cy="9.24715" r="0.940016" fill="black" style="fill:black;fill-opacity:1;"/>
<circle cx="13.8566" cy="11.4208" r="0.940016" fill="black" style="fill:black;fill-opacity:1;"/>
</svg>
