<svg width="24" height="24" viewBox="0 0 24 24" fill="none" xmlns="http://www.w3.org/2000/svg">
<path d="M10.4282 9.20663C11.9318 8.33858 13.8543 8.85372 14.7224 10.3572C15.0636 10.9484 15.1911 11.6043 15.1288 12.2354C15.1806 12.6676 15.3209 13.087 15.5437 13.4666C15.7725 13.8564 16.0804 14.1908 16.4448 14.4497C16.6283 14.5332 16.8023 14.6339 16.9648 14.7496C16.9801 14.7566 16.9954 14.7635 17.0108 14.7702L17.0066 14.7799C17.7832 15.3522 18.287 16.2733 18.287 17.3121C18.287 19.0482 16.8796 20.4556 15.1435 20.4556C14.6943 20.4556 14.2672 20.3614 13.8807 20.1916L13.8753 20.1989L13.8413 20.174C13.6514 20.0875 13.4717 19.9826 13.3043 19.8616C12.8953 19.6751 12.4486 19.5774 11.9939 19.5783C11.5433 19.5792 11.101 19.6768 10.6957 19.8616C10.5283 19.9826 10.3486 20.0875 10.1587 20.174C10.144 20.1846 10.1294 20.1953 10.1149 20.2062L10.1078 20.1967C9.72434 20.3632 9.3012 20.4556 8.85649 20.4556C7.12038 20.4556 5.71299 19.0482 5.71299 17.3121C5.71299 16.2733 6.21681 15.3522 6.99343 14.7799L6.98919 14.7702C7.00458 14.7635 7.0199 14.7566 7.03516 14.7496C7.1977 14.6339 7.37172 14.5332 7.55518 14.4497C7.91965 14.1908 8.2275 13.8564 8.45627 13.4666C8.67865 13.0877 8.81885 12.6692 8.87093 12.2378C8.84838 12.008 8.85149 11.7776 8.87913 11.5509C8.9948 10.604 9.53851 9.72033 10.4282 9.20663Z" fill="#87DBD4" style="fill:#87DBD4;fill:color(display-p3 0.5293 0.8583 0.8309);fill-opacity:1;"/>
<circle cx="5" cy="11.6965" r="2.71735" fill="#87DBD4" style="fill:#87DBD4;fill:color(display-p3 0.5293 0.8583 0.8309);fill-opacity:1;"/>
<circle cx="8.5634" cy="6.0676" r="2.71735" fill="#87DBD4" style="fill:#87DBD4;fill:color(display-p3 0.5293 0.8583 0.8309);fill-opacity:1;"/>
<circle cx="15.4366" cy="6.0676" r="2.71735" fill="#87DBD4" style="fill:#87DBD4;fill:color(display-p3 0.5293 0.8583 0.8309);fill-opacity:1;"/>
<circle cx="19" cy="11.6965" r="2.71735" fill="#87DBD4" style="fill:#87DBD4;fill:color(display-p3 0.5293 0.8583 0.8309);fill-opacity:1;"/>
</svg>
