<svg width="24" height="25" viewBox="0 0 24 25" fill="none" xmlns="http://www.w3.org/2000/svg">
<path d="M4.86888 8.64501L5.39921 9.17534L5.39953 9.17502L4.86888 8.64501ZM4.8715 8.64239L4.34117 8.11206L4.34085 8.11238L4.8715 8.64239ZM5.18075 8.33313L4.65042 7.8028L4.65042 7.8028L5.18075 8.33313ZM6.18752 7.32637L6.71785 7.8567L6.71785 7.8567L6.18752 7.32637ZM7.66509 7.39599L7.08724 7.8741L7.08724 7.8741L7.66509 7.39599ZM9.57085 9.69928L10.1487 9.22117L10.1487 9.22117L9.57085 9.69928ZM9.50749 11.0439L8.97716 10.5135L8.97716 10.5135L9.50749 11.0439ZM13.73 15.2664L13.1997 14.736L13.1997 14.736L13.73 15.2664ZM15.0746 15.203L14.5965 15.7809L14.5965 15.7809L15.0746 15.203ZM17.3779 17.1088L17.856 16.5309L17.856 16.5309L17.3779 17.1088ZM17.4475 18.5863L17.9778 19.1167L17.9778 19.1167L17.4475 18.5863ZM16.4407 19.5931L15.9104 19.0628L15.9104 19.0628L16.4407 19.5931ZM16.1315 19.9024L15.6011 19.372L15.6011 19.372L16.1315 19.9024ZM12.291 20.1754L12.75 19.5823L12.75 19.5823L12.291 20.1754ZM8.13897 16.6349L7.60864 17.1652L7.60864 17.1652L8.13897 16.6349ZM4.59843 12.4829L5.19154 12.0238L5.19154 12.0238L4.59843 12.4829ZM4.55699 9.01207L5.16568 9.45024L4.55699 9.01207ZM15.815 20.2189L16.3453 20.7492L15.815 20.2189ZM15.7618 20.2169L16.2 20.8256L15.7618 20.2169ZM8.77083 12.4518L8.21682 12.9574L8.77083 12.4518ZM4.55499 8.95889L5.08532 9.48922L4.55499 8.95889ZM4.33855 8.11468L4.02466 8.42856L5.08532 9.48922L5.39921 9.17534L4.33855 8.11468ZM4.34085 8.11238L4.33823 8.115L5.39953 9.17502L5.40215 9.1724L4.34085 8.11238ZM4.65042 7.8028L4.34117 8.11206L5.40183 9.17272L5.71108 8.86346L4.65042 7.8028ZM5.65719 6.79604L4.65042 7.8028L5.71108 8.86346L6.71785 7.8567L5.65719 6.79604ZM8.24294 6.91787C7.58537 6.12314 6.38657 6.06666 5.65719 6.79604L6.71785 7.8567C6.82205 7.7525 6.9933 7.76057 7.08724 7.8741L8.24294 6.91787ZM10.1487 9.22117L8.24294 6.91787L7.08724 7.8741L8.993 10.1774L10.1487 9.22117ZM10.0378 11.5742C10.6762 10.9359 10.7242 9.91671 10.1487 9.22117L8.993 10.1774C9.07522 10.2768 9.06836 10.4224 8.97716 10.5135L10.0378 11.5742ZM9.31778 12.2943L10.0378 11.5742L8.97716 10.5135L8.25712 11.2336L9.31778 12.2943ZM11.0296 13.7442C10.4998 13.2144 9.91215 12.5899 9.32484 11.9463L8.21682 12.9574C8.81252 13.6102 9.417 14.2529 9.96896 14.8049L11.0296 13.7442ZM12.8276 15.449C12.184 14.8617 11.5594 14.274 11.0296 13.7442L9.96896 14.8049C10.5209 15.3569 11.1637 15.9613 11.8165 16.557L12.8276 15.449ZM13.1997 14.736L12.4796 15.4561L13.5403 16.5167L14.2603 15.7967L13.1997 14.736ZM15.5527 14.6252C14.8572 14.0497 13.838 14.0977 13.1997 14.736L14.2603 15.7967C14.3515 15.7055 14.4971 15.6986 14.5965 15.7809L15.5527 14.6252ZM17.856 16.5309L15.5527 14.6252L14.5965 15.7809L16.8998 17.6866L17.856 16.5309ZM17.9778 19.1167C18.7072 18.3873 18.6507 17.1885 17.856 16.5309L16.8998 17.6866C17.0133 17.7806 17.0214 17.9518 16.9172 18.056L17.9778 19.1167ZM16.971 20.1234L17.9778 19.1167L16.9172 18.056L15.9104 19.0628L16.971 20.1234ZM16.6618 20.4327L16.9711 20.1234L15.9104 19.0628L15.6011 19.372L16.6618 20.4327ZM16.3453 20.7492L16.6618 20.4327L15.6011 19.372L15.2846 19.6885L16.3453 20.7492ZM11.8319 20.7685C13.1386 21.7799 14.9126 21.7522 16.2 20.8256L15.3236 19.6082C14.5506 20.1646 13.5077 20.1687 12.75 19.5823L11.8319 20.7685ZM7.60864 17.1652C8.81612 18.3727 10.5181 19.7517 11.8319 20.7685L12.75 19.5823C11.4435 18.5711 9.80538 17.2406 8.6693 16.1046L7.60864 17.1652ZM4.00532 12.9419C5.0222 14.2558 6.40116 15.9577 7.60864 17.1652L8.6693 16.1046C7.53323 14.9685 6.20276 13.3304 5.19154 12.0238L4.00532 12.9419ZM3.9483 8.5739C3.02161 9.86123 2.99399 11.6352 4.00532 12.9419L5.19154 12.0238C4.60512 11.2661 4.60922 10.2233 5.16568 9.45024L3.9483 8.5739ZM5.16568 9.45024C5.38346 9.14772 5.35535 8.7263 5.08532 8.45628L4.02466 9.51694C3.76829 9.26057 3.7418 8.86076 3.9483 8.5739L5.16568 9.45024ZM15.2846 19.6885C15.5699 19.4033 16.0323 19.4033 16.3176 19.6885L15.2569 20.7492C15.5575 21.0497 16.0448 21.0497 16.3453 20.7492L15.2846 19.6885ZM11.8165 16.557C12.3112 17.0084 13.0703 16.9867 13.5403 16.5167L12.4796 15.4561C12.573 15.3627 12.7263 15.3566 12.8276 15.449L11.8165 16.557ZM16.3176 19.6885C16.0476 19.4185 15.6261 19.3904 15.3236 19.6082L16.2 20.8256C15.9131 21.0321 15.5133 21.0056 15.2569 20.7492L16.3176 19.6885ZM8.25712 11.2336C7.78713 11.7036 7.76544 12.4627 8.21682 12.9574L9.32484 11.9463C9.41726 12.0476 9.4112 12.2008 9.31778 12.2943L8.25712 11.2336ZM4.02466 8.42856C3.72412 8.72911 3.72412 9.21639 4.02466 9.51694L5.08532 8.45628C5.37056 8.74152 5.37056 9.20398 5.08532 9.48922L4.02466 8.42856Z" fill="black" style="fill:black;fill-opacity:1;"/>
<path d="M18.3533 13.714C18.8322 13.2351 19.2121 12.6666 19.4712 12.0409C19.7304 11.4152 19.8638 10.7446 19.8638 10.0673C19.8638 9.39004 19.7304 8.71941 19.4712 8.0937C19.2121 7.468 18.8322 6.89947 18.3533 6.42057C17.8744 5.94168 17.3059 5.5618 16.6801 5.30262C16.0544 5.04345 15.3838 4.91005 14.7066 4.91005C14.0293 4.91005 13.3587 5.04345 12.733 5.30262C12.1073 5.5618 11.5387 5.94168 11.0598 6.42057" stroke="black" style="stroke:black;stroke-opacity:1;" stroke-width="1.5" stroke-linecap="round"/>
<path d="M16.0208 11.3815C16.1933 11.2089 16.3303 11.004 16.4237 10.7785C16.5171 10.553 16.5651 10.3114 16.5651 10.0673C16.5651 9.82323 16.5171 9.58155 16.4237 9.35605C16.3303 9.13056 16.1933 8.92568 16.0208 8.75309C15.8482 8.58051 15.6433 8.44361 15.4178 8.3502C15.1923 8.2568 14.9506 8.20873 14.7066 8.20873C14.4625 8.20873 14.2208 8.2568 13.9953 8.3502C13.7698 8.44361 13.5649 8.58051 13.3924 8.75309" stroke="black" style="stroke:black;stroke-opacity:1;" stroke-width="1.5" stroke-linecap="round"/>
</svg>
