<svg width="24" height="25" viewBox="0 0 24 25" fill="none" xmlns="http://www.w3.org/2000/svg">
<path d="M18.4037 11.6668V18.3349C18.4037 19.4395 17.5083 20.3349 16.4037 20.3349H7.59633C6.49176 20.3349 5.59633 19.4395 5.59633 18.3349V7.69796C5.59633 6.59339 6.49176 5.69796 7.59633 5.69796H13.1431" stroke="black" style="stroke:black;stroke-opacity:1;" stroke-width="1.5" stroke-linecap="round"/>
<path d="M18.2976 3.99659C18.6881 3.60606 19.3213 3.60606 19.7118 3.99659L20.7725 5.05725C21.163 5.44777 21.163 6.08094 20.7725 6.47146L12.6964 14.5475C12.6395 14.6044 12.5697 14.6468 12.4929 14.6709L9.91356 15.4825C9.52792 15.6039 9.1652 15.2412 9.28654 14.8555L10.0982 12.2761C10.1223 12.1994 10.1646 12.1296 10.2216 12.0727L18.2976 3.99659Z" fill="black" style="fill:black;fill-opacity:1;"/>
</svg>
