<svg width="24" height="25" viewBox="0 0 24 25" fill="none" xmlns="http://www.w3.org/2000/svg">
<path d="M13.8034 7.19563H13.0534V7.74151L13.5728 7.90932L13.8034 7.19563ZM15.9278 8.4238L15.425 8.9803L15.8301 9.34627L16.3028 9.07332L15.9278 8.4238ZM17.3027 7.62999L16.9277 6.98047L16.9277 6.98047L17.3027 7.62999ZM17.9858 7.813L17.3362 8.188L17.3362 8.188L17.9858 7.813ZM19.2891 10.0705L19.9386 9.69547L19.9386 9.69547L19.2891 10.0705ZM19.1061 10.7535L18.7311 10.104L18.7311 10.104L19.1061 10.7535ZM17.7322 11.5467L17.3572 10.8972L16.8851 11.1698L16.9987 11.703L17.7322 11.5467ZM17.7322 14.001L16.9987 13.8447L16.8851 14.378L17.3572 14.6505L17.7322 14.001ZM19.1061 14.7942L19.4811 14.1447L19.4811 14.1447L19.1061 14.7942ZM19.2891 15.4772L19.9386 15.8522L19.9386 15.8522L19.2891 15.4772ZM17.9858 17.7347L17.3362 17.3597L17.3362 17.3597L17.9858 17.7347ZM17.3027 17.9177L16.9277 18.5672L16.9277 18.5672L17.3027 17.9177ZM15.9278 17.1239L16.3028 16.4744L15.8301 16.2014L15.425 16.5674L15.9278 17.1239ZM13.8034 18.3521L13.5728 17.6384L13.0534 17.8062V18.3521H13.8034ZM10.1966 18.3521H10.9466V17.8062L10.4272 17.6384L10.1966 18.3521ZM8.0722 17.1239L8.57499 16.5674L8.16995 16.2014L7.6972 16.4744L8.0722 17.1239ZM6.69726 17.9177L7.07226 18.5672L7.07226 18.5672L6.69726 17.9177ZM6.01424 17.7347L6.66376 17.3597L6.66376 17.3597L6.01424 17.7347ZM4.71089 15.4772L4.06137 15.8522L4.06137 15.8522L4.71089 15.4772ZM4.89391 14.7942L5.26891 15.4438L5.26891 15.4438L4.89391 14.7942ZM6.26778 14.001L6.64278 14.6505L7.11492 14.378L7.00132 13.8447L6.26778 14.001ZM6.26778 11.5467L7.00132 11.703L7.11492 11.1698L6.64278 10.8972L6.26778 11.5467ZM4.89391 10.7535L4.5189 11.403L4.51891 11.403L4.89391 10.7535ZM4.71089 10.0705L5.36041 10.4455L5.36041 10.4455L4.71089 10.0705ZM6.01424 7.813L5.36473 7.438L5.36473 7.438L6.01424 7.813ZM6.69726 7.62999L6.32226 8.2795L6.32226 8.27951L6.69726 7.62999ZM8.07219 8.4238L7.69719 9.07332L8.16994 9.34627L8.57499 8.9803L8.07219 8.4238ZM10.1966 7.19563L10.4272 7.90932L10.9466 7.74151V7.19563H10.1966ZM10.6966 4.35961C10.0063 4.35961 9.44665 4.91925 9.44665 5.60961H10.9466C10.9466 5.74768 10.8347 5.85961 10.6966 5.85961V4.35961ZM13.3034 4.35961H10.6966V5.85961H13.3034V4.35961ZM14.5534 5.60961C14.5534 4.91925 13.9937 4.35961 13.3034 4.35961V5.85961C13.1653 5.85961 13.0534 5.74768 13.0534 5.60961H14.5534ZM14.5534 7.19563V5.60961H13.0534V7.19563H14.5534ZM16.4306 7.8673C15.747 7.24967 14.9329 6.77238 14.0339 6.48195L13.5728 7.90932C14.2662 8.13331 14.8955 8.5019 15.425 8.9803L16.4306 7.8673ZM16.3028 9.07332L17.6777 8.27951L16.9277 6.98047L15.5528 7.77428L16.3028 9.07332ZM17.6777 8.27951C17.5582 8.34854 17.4053 8.30757 17.3362 8.188L18.6353 7.438C18.2901 6.84013 17.5256 6.63529 16.9277 6.98047L17.6777 8.27951ZM17.3362 8.188L18.6396 10.4455L19.9386 9.69547L18.6353 7.438L17.3362 8.188ZM18.6396 10.4455C18.5706 10.3259 18.6115 10.173 18.7311 10.104L19.4811 11.403C20.079 11.0578 20.2838 10.2933 19.9386 9.69547L18.6396 10.4455ZM18.7311 10.104L17.3572 10.8972L18.1072 12.1962L19.4811 11.403L18.7311 10.104ZM18.6109 12.7739C18.6109 12.3001 18.5609 11.8372 18.4658 11.3904L16.9987 11.703C17.0721 12.0477 17.1109 12.4058 17.1109 12.7739H18.6109ZM18.4658 14.1573C18.5609 13.7105 18.6109 13.2476 18.6109 12.7739H17.1109C17.1109 13.1419 17.0721 13.5001 16.9987 13.8447L18.4658 14.1573ZM19.4811 14.1447L18.1072 13.3515L17.3572 14.6505L18.7311 15.4438L19.4811 14.1447ZM19.9386 15.8522C20.2838 15.2544 20.079 14.4899 19.4811 14.1447L18.7311 15.4438C18.6115 15.3747 18.5706 15.2218 18.6396 15.1022L19.9386 15.8522ZM18.6353 18.1097L19.9386 15.8522L18.6396 15.1022L17.3362 17.3597L18.6353 18.1097ZM16.9277 18.5672C17.5256 18.9124 18.2901 18.7076 18.6353 18.1097L17.3362 17.3597C17.4053 17.2401 17.5582 17.1992 17.6777 17.2682L16.9277 18.5672ZM15.5528 17.7734L16.9277 18.5672L17.6777 17.2682L16.3028 16.4744L15.5528 17.7734ZM14.0339 19.0658C14.9329 18.7753 15.747 18.298 16.4306 17.6804L15.425 16.5674C14.8955 17.0458 14.2662 17.4144 13.5728 17.6384L14.0339 19.0658ZM14.5534 19.9381V18.3521H13.0534V19.9381H14.5534ZM13.3034 21.1881C13.9937 21.1881 14.5534 20.6285 14.5534 19.9381H13.0534C13.0534 19.8 13.1653 19.6881 13.3034 19.6881V21.1881ZM10.6966 21.1881H13.3034V19.6881H10.6966V21.1881ZM9.44665 19.9381C9.44665 20.6285 10.0063 21.1881 10.6966 21.1881V19.6881C10.8347 19.6881 10.9466 19.8 10.9466 19.9381H9.44665ZM9.44665 18.3521V19.9381H10.9466V18.3521H9.44665ZM7.5694 17.6804C8.25299 18.298 9.06705 18.7753 9.9661 19.0658L10.4272 17.6384C9.73383 17.4144 9.10449 17.0458 8.57499 16.5674L7.5694 17.6804ZM7.07226 18.5672L8.4472 17.7734L7.6972 16.4744L6.32226 17.2682L7.07226 18.5672ZM5.36473 18.1097C5.7099 18.7076 6.47439 18.9124 7.07226 18.5672L6.32226 17.2682C6.44183 17.1992 6.59473 17.2401 6.66376 17.3597L5.36473 18.1097ZM4.06137 15.8522L5.36473 18.1097L6.66376 17.3597L5.36041 15.1022L4.06137 15.8522ZM4.51891 14.1447C3.92104 14.4899 3.7162 15.2544 4.06137 15.8522L5.36041 15.1022C5.42945 15.2218 5.38848 15.3747 5.26891 15.4438L4.51891 14.1447ZM5.89278 13.3515L4.51891 14.1447L5.26891 15.4438L6.64278 14.6505L5.89278 13.3515ZM5.38911 12.7739C5.38911 13.2476 5.43906 13.7105 5.53425 14.1573L7.00132 13.8447C6.92789 13.5001 6.88911 13.1419 6.88911 12.7739H5.38911ZM5.53424 11.3904C5.43906 11.8372 5.38911 12.3001 5.38911 12.7739H6.88911C6.88911 12.4058 6.92789 12.0477 7.00132 11.703L5.53424 11.3904ZM4.51891 11.403L5.89278 12.1962L6.64278 10.8972L5.26891 10.104L4.51891 11.403ZM4.06137 9.69547C3.71619 10.2933 3.92104 11.0578 4.5189 11.403L5.26891 10.104C5.38848 10.173 5.42945 10.3259 5.36041 10.4455L4.06137 9.69547ZM5.36473 7.438L4.06137 9.69547L5.36041 10.4455L6.66376 8.188L5.36473 7.438ZM7.07226 6.98047C6.47439 6.63529 5.7099 6.84013 5.36473 7.438L6.66376 8.188C6.59473 8.30757 6.44183 8.34854 6.32226 8.2795L7.07226 6.98047ZM8.44719 7.77428L7.07226 6.98047L6.32226 8.27951L7.69719 9.07332L8.44719 7.77428ZM9.9661 6.48195C9.06705 6.77238 8.25298 7.24967 7.56939 7.8673L8.57499 8.9803C9.10448 8.5019 9.73383 8.13331 10.4272 7.90932L9.9661 6.48195ZM9.44665 5.60961V7.19563H10.9466V5.60961H9.44665Z" fill="black" style="fill:black;fill-opacity:1;"/>
<circle cx="12" cy="12.7738" r="2.5" stroke="black" style="stroke:black;stroke-opacity:1;" stroke-width="1.5"/>
</svg>
