<svg width="24" height="25" viewBox="0 0 24 25" fill="none" xmlns="http://www.w3.org/2000/svg">
<path d="M11.3537 12.7145C11.9719 12.3575 12.7624 12.5694 13.1194 13.1876C13.2597 13.4306 13.3121 13.7003 13.2865 13.9598C13.3078 14.1375 13.3655 14.31 13.4571 14.4661C13.5511 14.6263 13.6777 14.7638 13.8276 14.8703C13.903 14.9046 13.9746 14.946 14.0414 14.9936C14.0477 14.9965 14.054 14.9993 14.0603 15.0021L14.0586 15.006C14.3779 15.2414 14.585 15.6201 14.585 16.0472C14.585 16.761 14.0064 17.3397 13.2925 17.3397C13.1078 17.3397 12.9322 17.301 12.7733 17.2312L12.7711 17.2342L12.7571 17.2239C12.679 17.1884 12.6051 17.1452 12.5363 17.0955C12.3681 17.0188 12.1844 16.9786 11.9975 16.979C11.8122 16.9794 11.6303 17.0195 11.4637 17.0955C11.3949 17.1452 11.321 17.1884 11.2429 17.2239C11.2369 17.2283 11.2309 17.2327 11.2249 17.2372L11.222 17.2333C11.0643 17.3017 10.8903 17.3397 10.7075 17.3397C9.99364 17.3397 9.41496 16.761 9.41496 16.0472C9.41496 15.6201 9.62212 15.2414 9.94144 15.006L9.9397 15.0021C9.94602 14.9993 9.95232 14.9965 9.9586 14.9936C10.0254 14.946 10.097 14.9046 10.1724 14.8703C10.3223 14.7638 10.4489 14.6263 10.5429 14.4661C10.6344 14.3103 10.692 14.1382 10.7134 13.9608C10.7041 13.8663 10.7054 13.7716 10.7168 13.6784C10.7643 13.289 10.9879 12.9257 11.3537 12.7145Z" fill="black" style="fill:black;fill-opacity:1;"/>
<circle cx="9.17995" cy="13.4811" r="0.940016" fill="black" style="fill:black;fill-opacity:1;"/>
<circle cx="10.59" cy="11.3075" r="0.940016" fill="black" style="fill:black;fill-opacity:1;"/>
<circle cx="13.41" cy="11.3075" r="0.940016" fill="black" style="fill:black;fill-opacity:1;"/>
<circle cx="14.82" cy="13.4811" r="0.940016" fill="black" style="fill:black;fill-opacity:1;"/>
<path d="M4.43517 10.1934C4.43517 9.86204 4.59932 9.55219 4.87347 9.36606L11.4383 4.90907C11.7774 4.67886 12.2226 4.67886 12.5617 4.90907L19.1265 9.36606C19.4007 9.55219 19.5648 9.86204 19.5648 10.1934V19.3628C19.5648 19.9151 19.1171 20.3628 18.5648 20.3628H12H5.43517C4.88289 20.3628 4.43517 19.9151 4.43517 19.3628V10.1934Z" stroke="black" style="stroke:black;stroke-opacity:1;" stroke-width="1.5"/>
</svg>
