<svg width="24" height="25" viewBox="0 0 24 25" fill="none" xmlns="http://www.w3.org/2000/svg">
<path d="M6.28369 11.431C6.45036 10.4731 7.28179 9.77385 8.25409 9.77385H15.7459C16.7182 9.77385 17.5496 10.4731 17.7163 11.431L18.9398 18.4629C19.1527 19.6862 18.2111 20.8058 16.9694 20.8058H7.03055C5.7889 20.8058 4.84731 19.6862 5.06016 18.4629L6.28369 11.431Z" stroke="black" style="stroke:black;stroke-opacity:1;" stroke-width="1.5"/>
<circle cx="12" cy="7.27385" r="2.5" stroke="black" style="stroke:black;stroke-opacity:1;" stroke-width="1.5"/>
<path d="M9.38016 17.4006C9.27882 17.4006 9.19349 17.3686 9.12416 17.3046C9.05482 17.2406 9.02016 17.158 9.02016 17.0566V14.3846C9.02016 14.2833 9.05482 14.2006 9.12416 14.1366C9.19349 14.0726 9.27882 14.0406 9.38016 14.0406C9.48682 14.0406 9.57216 14.0726 9.63616 14.1366C9.70549 14.2006 9.74016 14.2833 9.74016 14.3846V15.0886C9.74016 15.1793 9.76416 15.2246 9.81216 15.2246C9.83882 15.2246 9.86816 15.206 9.90016 15.1686L10.8362 14.1686C10.9215 14.0833 11.0122 14.0406 11.1082 14.0406C11.2095 14.0406 11.2975 14.0753 11.3722 14.1446C11.4468 14.214 11.4842 14.2966 11.4842 14.3926C11.4842 14.478 11.4495 14.5553 11.3802 14.6246L10.4282 15.5766L11.4922 16.7926C11.5295 16.83 11.5535 16.87 11.5642 16.9126C11.5748 16.9553 11.5802 16.998 11.5802 17.0406C11.5802 17.1366 11.5428 17.222 11.4682 17.2966C11.3935 17.366 11.3082 17.4006 11.2122 17.4006C11.1108 17.4006 11.0175 17.358 10.9322 17.2726L9.94016 16.0566L9.87616 16.1206C9.81749 16.1793 9.78016 16.2353 9.76416 16.2886C9.74816 16.342 9.74016 16.4086 9.74016 16.4886V17.0566C9.74016 17.158 9.70549 17.2406 9.63616 17.3046C9.57216 17.3686 9.48682 17.4006 9.38016 17.4006ZM13.5482 17.4006C13.2335 17.4006 12.9482 17.326 12.6922 17.1766C12.4362 17.0273 12.2335 16.8246 12.0842 16.5686C11.9348 16.3126 11.8602 16.022 11.8602 15.6966C11.8602 15.3713 11.9322 15.0833 12.0762 14.8326C12.2255 14.5766 12.4308 14.374 12.6922 14.2246C12.9535 14.0753 13.2495 14.0006 13.5802 14.0006C13.8148 14.0006 14.0255 14.03 14.2122 14.0886C14.4042 14.1473 14.5802 14.2406 14.7402 14.3686C14.8255 14.438 14.8682 14.5286 14.8682 14.6406C14.8682 14.7313 14.8362 14.8086 14.7722 14.8726C14.7082 14.9366 14.6308 14.9686 14.5402 14.9686C14.4815 14.9686 14.4148 14.9446 14.3402 14.8966C14.2228 14.822 14.1028 14.7633 13.9802 14.7206C13.8575 14.6726 13.7268 14.6486 13.5882 14.6486C13.2948 14.6486 13.0522 14.7473 12.8602 14.9446C12.6735 15.1366 12.5802 15.3873 12.5802 15.6966C12.5802 16.0166 12.6708 16.2726 12.8522 16.4646C13.0335 16.6566 13.2655 16.7526 13.5482 16.7526C13.8095 16.7526 14.0228 16.702 14.1882 16.6006C14.3588 16.494 14.4442 16.358 14.4442 16.1926C14.4442 16.15 14.4255 16.1286 14.3882 16.1286H13.8522C13.7508 16.1286 13.6682 16.0993 13.6042 16.0406C13.5455 15.982 13.5162 15.9046 13.5162 15.8086C13.5162 15.718 13.5455 15.6433 13.6042 15.5846C13.6682 15.526 13.7508 15.4966 13.8522 15.4966H14.7322C14.8762 15.4966 14.9802 15.5313 15.0442 15.6006C15.1082 15.6646 15.1402 15.774 15.1402 15.9286C15.1402 16.3766 14.9935 16.734 14.7002 17.0006C14.4122 17.2673 14.0282 17.4006 13.5482 17.4006Z" fill="black" style="fill:black;fill-opacity:1;"/>
</svg>
